<?xml version="1.0" standalone="no"?>
<!DOCTYPE svg PUBLIC "-//W3C//DTD SVG 20010904//EN"
 "http://www.w3.org/TR/2001/REC-SVG-20010904/DTD/svg10.dtd">
<svg version="1.0" xmlns="http://www.w3.org/2000/svg"
 width="320.000000pt" height="320.000000pt" viewBox="0 0 320.000000 320.000000"
 preserveAspectRatio="xMidYMid meet">
<metadata>
Created by potrace 1.14, written by Peter Selinger 2001-2017
</metadata>
<g transform="translate(0.000000,320.000000) scale(0.100000,-0.100000)"
fill="#000000" stroke="none">
<path d="M1368 3075 c-32 -6 -64 -10 -73 -9 -8 1 -17 -2 -21 -7 -3 -5 -12 -9
-20 -9 -23 0 -97 -38 -131 -68 -30 -27 -99 -132 -87 -132 4 0 2 -6 -4 -12 -36
-44 -29 -315 10 -428 3 -8 25 -76 48 -150 24 -74 56 -162 72 -194 15 -33 28
-68 28 -78 0 -10 4 -18 8 -18 8 0 34 -65 33 -85 0 -5 8 -18 16 -27 9 -10 13
-18 10 -18 -3 0 9 -26 27 -58 18 -32 36 -72 40 -88 4 -16 11 -31 14 -34 4 -3
15 -22 24 -42 26 -55 1 -105 -64 -132 -39 -17 -51 -16 -193 20 -55 14 -108 28
-118 30 -10 2 -27 6 -37 9 -19 6 -65 14 -115 20 -76 9 -118 16 -126 21 -5 3
-9 2 -9 -3 0 -7 -73 -9 -90 -2 -3 1 -9 1 -13 0 -4 -1 -24 -4 -45 -6 -20 -3
-50 -9 -67 -12 -16 -4 -33 -6 -37 -5 -5 1 -8 -2 -8 -7 0 -5 -15 -12 -33 -15
-52 -10 -132 -71 -183 -141 -10 -15 -25 -33 -32 -41 -15 -16 -70 -136 -77
-169 -1 -5 -10 -32 -19 -58 -9 -27 -19 -65 -22 -85 -3 -21 -9 -55 -13 -77 -20
-106 8 -391 41 -433 6 -6 7 -12 3 -12 -4 0 -2 -6 4 -13 6 -8 8 -17 4 -20 -3
-4 -1 -7 5 -7 7 0 11 -3 10 -7 -1 -5 4 -21 10 -36 7 -16 12 -33 12 -38 0 -5 3
-9 8 -9 4 0 15 -15 25 -33 29 -53 117 -140 187 -183 81 -51 100 -58 175 -59
51 -2 71 4 139 38 44 21 85 44 91 50 6 7 29 26 50 42 40 31 126 115 119 115
-3 0 35 42 134 147 12 13 22 27 22 32 0 4 16 26 35 48 19 23 35 46 35 52 0 6
3 11 8 11 10 0 108 151 104 162 -1 4 4 8 10 9 15 0 73 76 83 108 3 11 11 21
16 21 5 0 9 6 9 13 0 7 13 28 30 47 16 19 29 39 30 43 0 16 55 56 76 57 29 0
69 -33 82 -67 5 -15 14 -37 18 -48 4 -11 8 -22 8 -25 2 -8 28 -93 34 -110 6
-18 5 -14 21 -70 76 -262 171 -425 276 -474 117 -54 153 -66 220 -70 17 -2 36
-6 42 -9 7 -4 14 -3 18 3 4 7 12 7 26 0 10 -6 19 -7 19 -3 0 4 19 8 42 7 24 0
61 4 83 9 22 5 51 10 65 12 14 2 25 4 25 5 0 1 7 3 15 5 8 1 42 13 75 26 33
13 63 22 68 21 4 -1 7 2 7 8 0 5 7 10 15 10 15 0 56 20 65 31 3 4 24 17 47 29
42 21 203 165 203 180 0 5 13 23 30 41 16 18 27 36 24 41 -3 4 -1 8 4 8 12 0
47 75 61 130 18 71 20 161 4 212 -14 48 -78 136 -99 137 -7 1 -15 8 -18 17 -4
9 -9 14 -13 11 -3 -4 -18 2 -33 13 -15 11 -30 17 -34 13 -3 -3 -6 -1 -6 5 0 7
-4 12 -9 12 -5 0 -20 4 -33 9 -13 5 -26 9 -31 10 -4 0 -23 7 -42 15 -20 9 -38
15 -40 16 -3 0 -6 0 -7 1 -2 0 -12 2 -23 4 -32 5 -64 13 -73 19 -4 2 -26 7
-48 10 -22 4 -51 9 -64 12 -14 3 -41 8 -60 10 -19 3 -46 7 -60 10 -14 3 -45 7
-70 10 -46 4 -87 10 -130 19 -34 7 -100 17 -130 20 -14 1 -34 5 -45 8 -11 4
-62 9 -113 12 -103 6 -122 12 -170 62 -60 60 -48 93 80 225 118 122 189 203
243 277 52 71 113 183 120 223 2 11 7 29 11 40 9 30 11 87 2 82 -5 -3 -4 6 1
19 6 14 7 28 4 31 -4 3 -8 21 -9 38 -4 48 -11 72 -28 107 -9 16 -16 37 -16 46
0 8 -4 15 -10 15 -5 0 -10 6 -10 13 0 8 -13 33 -30 55 -16 23 -30 44 -30 46 0
16 -170 191 -225 231 -22 17 -43 34 -47 40 -4 5 -8 6 -8 1 0 -5 -8 0 -17 11
-10 11 -36 26 -58 34 -22 8 -43 18 -46 22 -3 5 -15 10 -25 12 -10 2 -20 4 -21
5 -2 2 -6 3 -10 4 -5 1 -30 7 -58 14 -45 10 -95 19 -150 26 -11 1 -46 -3 -77
-9z"/>
</g>
</svg>
